<svg width="50" height="50" viewBox="0 0 50 50" fill="none" xmlns="http://www.w3.org/2000/svg">
<path fill-rule="evenodd" clip-rule="evenodd" d="M5.14386 20.7687C5.289 20.6232 5.46142 20.5078 5.65125 20.429C5.84108 20.3502 6.04458 20.3097 6.25011 20.3097C6.45563 20.3097 6.65913 20.3502 6.84896 20.429C7.03879 20.5078 7.21122 20.6232 7.35636 20.7687L25.0001 38.4156L42.6439 20.7687C42.9373 20.4753 43.3352 20.3105 43.7501 20.3105C44.165 20.3105 44.563 20.4753 44.8564 20.7687C45.1498 21.0621 45.3146 21.4601 45.3146 21.875C45.3146 22.2899 45.1498 22.6878 44.8564 22.9812L26.1064 41.7312C25.9612 41.8767 25.7888 41.9922 25.599 42.071C25.4091 42.1497 25.2056 42.1903 25.0001 42.1903C24.7946 42.1903 24.5911 42.1497 24.4013 42.071C24.2114 41.9922 24.039 41.8767 23.8939 41.7312L5.14386 22.9812C4.99835 22.8361 4.8829 22.6637 4.80413 22.4738C4.72536 22.284 4.68481 22.0805 4.68481 21.875C4.68481 21.6695 4.72536 21.466 4.80413 21.2761C4.8829 21.0863 4.99835 20.9139 5.14386 20.7687V20.7687Z" fill="white"/>
<path fill-rule="evenodd" clip-rule="evenodd" d="M5.14386 8.26874C5.289 8.12323 5.46142 8.00778 5.65125 7.92901C5.84108 7.85024 6.04458 7.80969 6.25011 7.80969C6.45563 7.80969 6.65913 7.85024 6.84896 7.92901C7.03879 8.00778 7.21122 8.12323 7.35636 8.26874L25.0001 25.9156L42.6439 8.26874C42.7891 8.12346 42.9616 8.00822 43.1514 7.9296C43.3412 7.85098 43.5447 7.81051 43.7501 7.81051C43.9556 7.81051 44.159 7.85098 44.3488 7.9296C44.5386 8.00822 44.7111 8.12346 44.8564 8.26874C45.0016 8.41401 45.1169 8.58648 45.1955 8.77629C45.2741 8.9661 45.3146 9.16954 45.3146 9.37499C45.3146 9.58044 45.2741 9.78387 45.1955 9.97368C45.1169 10.1635 45.0016 10.336 44.8564 10.4812L26.1064 29.2312C25.9612 29.3767 25.7888 29.4922 25.599 29.571C25.4091 29.6497 25.2056 29.6903 25.0001 29.6903C24.7946 29.6903 24.5911 29.6497 24.4013 29.571C24.2114 29.4922 24.039 29.3767 23.8939 29.2312L5.14386 10.4812C4.99835 10.3361 4.8829 10.1637 4.80413 9.97384C4.72536 9.78401 4.68481 9.58051 4.68481 9.37499C4.68481 9.16946 4.72536 8.96596 4.80413 8.77613C4.8829 8.5863 4.99835 8.41388 5.14386 8.26874V8.26874Z" fill="white"/>
</svg>
